<?xml version="1.0" encoding="UTF-8" standalone="no"?>
<svg
   version="1.1"
   id="Layer_1"
   x="0px"
   y="0px"
   viewBox="0 0 122.88 91.26"
   style="enable-background:new 0 0 122.88 91.26"
   xml:space="preserve"
   sodipodi:docname="software.svg"
   inkscape:version="1.3.2 (091e20e, 2023-11-25, custom)"
   xmlns:inkscape="http://www.inkscape.org/namespaces/inkscape"
   xmlns:sodipodi="http://sodipodi.sourceforge.net/DTD/sodipodi-0.dtd"
   xmlns="http://www.w3.org/2000/svg"
   xmlns:svg="http://www.w3.org/2000/svg"><sodipodi:namedview
     id="namedview1"
     pagecolor="#ffffff"
     bordercolor="#000000"
     borderopacity="0.25"
     inkscape:showpageshadow="2"
     inkscape:pageopacity="0.0"
     inkscape:pagecheckerboard="0"
     inkscape:deskcolor="#d1d1d1"
     inkscape:zoom="12.853386"
     inkscape:cx="61.423505"
     inkscape:cy="45.630001"
     inkscape:window-width="2560"
     inkscape:window-height="1369"
     inkscape:window-x="-8"
     inkscape:window-y="1072"
     inkscape:window-maximized="1"
     inkscape:current-layer="Layer_1" /><defs
     id="defs1" /><style
     type="text/css"
     id="style1"><![CDATA[
	.st0{fill-rule:evenodd;clip-rule:evenodd;}
]]></style><g
     id="g1"
     style="fill:#201814;fill-opacity:1"><path
       class="st0"
       d="M8.32,0h106.24c4.58,0,8.32,3.74,8.32,8.32v74.62c0,4.57-3.74,8.32-8.32,8.32H8.32C3.74,91.26,0,87.51,0,82.94 V8.32C0,3.74,3.74,0,8.32,0L8.32,0L8.32,0z M90.36,36.18l3.62,3.62c0.95,0.95,0.95,2.51,0,3.46l-2.91,2.91 c0.8,1.5,1.42,3.12,1.81,4.82h3.77c1.35,0,2.45,1.1,2.45,2.45v5.11c0,1.35-1.1,2.45-2.45,2.45h-4.12c-0.5,1.67-1.23,3.24-2.13,4.68 l2.67,2.67c0.95,0.95,0.95,2.51,0,3.46l-3.62,3.62c-0.95,0.95-2.51,0.95-3.46,0l-2.91-2.91c-1.5,0.8-3.12,1.42-4.82,1.81v3.77 c0,1.35-1.1,2.45-2.45,2.45h-5.11c-1.35,0-2.45-1.1-2.45-2.45v-4.12c-1.67-0.5-3.24-1.23-4.68-2.13l-2.67,2.67 c-0.95,0.95-2.51,0.95-3.46,0l-3.62-3.62c-0.95-0.95-0.95-2.51,0-3.46l2.91-2.91c-0.8-1.5-1.42-3.12-1.81-4.82h-3.77 c-1.35,0-2.45-1.1-2.45-2.45v-5.11c0-1.34,1.1-2.45,2.45-2.45h4.12c0.51-1.67,1.23-3.24,2.13-4.68l-2.67-2.67 c-0.95-0.95-0.95-2.51,0-3.46l3.62-3.62c0.95-0.95,2.51-0.95,3.46,0l2.91,2.91c1.5-0.8,3.12-1.42,4.82-1.81V32.6 c0-1.35,1.1-2.45,2.45-2.45h5.11c1.35,0,2.45,1.1,2.45,2.45v4.11c1.67,0.5,3.24,1.23,4.68,2.13l2.67-2.67 C87.85,35.23,89.4,35.23,90.36,36.18L90.36,36.18L90.36,36.18z M73.89,45.29c5.55,0,10.05,4.5,10.05,10.05s-4.5,10.05-10.05,10.05 c-5.55,0-10.05-4.5-10.05-10.05S68.34,45.29,73.89,45.29L73.89,45.29L73.89,45.29z M53.48,23.29v2.45c0,1.21-0.99,2.21-2.21,2.21 h-3.71c-0.46,1.5-1.11,2.92-1.92,4.22l2.41,2.41c0.86,0.86,0.86,2.26,0,3.12l-3.26,3.26c-0.86,0.86-2.26,0.86-3.12,0l-2.62-2.62 c-1.35,0.72-2.81,1.28-4.34,1.63v3.4c0,1.21-0.99,2.21-2.21,2.21h-4.61c-1.21,0-2.21-0.99-2.21-2.21v-3.71 c-1.5-0.46-2.92-1.11-4.22-1.92l-2.41,2.41c-0.86,0.86-2.26,0.86-3.12,0l-3.26-3.26c-0.86-0.86-0.86-2.26,0-3.12l2.62-2.62 c-0.72-1.35-1.28-2.81-1.63-4.34h-3.4c-1.21,0-2.21-0.99-2.21-2.21v-1.29H5.29v60.46c0,0.64,0.25,1.2,0.67,1.63 c0.42,0.42,0.99,0.67,1.63,0.67h108.04c0.64,0,1.2-0.25,1.63-0.67c0.43-0.43,0.67-0.99,0.67-1.63V23.29h0.04l0,0H53.48L53.48,23.29 z M21.72,23.29c0.23,4.8,4.19,8.63,9.05,8.63c4.86,0,8.82-3.83,9.05-8.63H21.72L21.72,23.29z M106.64,9.35 c2.27,0,4.11,1.84,4.11,4.11c0,2.27-1.84,4.11-4.11,4.11c-2.27,0-4.11-1.84-4.11-4.11C102.54,11.19,104.38,9.35,106.64,9.35 L106.64,9.35L106.64,9.35z M78.8,9.35c2.27,0,4.11,1.84,4.11,4.11c0,2.27-1.84,4.11-4.11,4.11c-2.27,0-4.11-1.84-4.11-4.11 C74.69,11.19,76.53,9.35,78.8,9.35L78.8,9.35L78.8,9.35z M92.72,9.35c2.27,0,4.11,1.84,4.11,4.11c0,2.27-1.84,4.11-4.11,4.11 c-2.27,0-4.11-1.84-4.11-4.11C88.61,11.19,90.45,9.35,92.72,9.35L92.72,9.35L92.72,9.35z"
       id="path1"
       style="fill:#201814;fill-opacity:1" /></g></svg>
