<?xml version="1.0" encoding="UTF-8" standalone="no"?>
<!-- Created with Inkscape (http://www.inkscape.org/) -->

<svg
   width="235.44559mm"
   height="87.254097mm"
   viewBox="0 0 889.87332 329.77927"
   version="1.1"
   id="svg1"
   xml:space="preserve"
   inkscape:version="1.4 (86a8ad7, 2024-10-11)"
   sodipodi:docname="TroutCard.svg"
   inkscape:export-filename="TroutCard.png"
   inkscape:export-xdpi="96"
   inkscape:export-ydpi="96"
   xmlns:inkscape="http://www.inkscape.org/namespaces/inkscape"
   xmlns:sodipodi="http://sodipodi.sourceforge.net/DTD/sodipodi-0.dtd"
   xmlns:xlink="http://www.w3.org/1999/xlink"
   xmlns="http://www.w3.org/2000/svg"
   xmlns:svg="http://www.w3.org/2000/svg"><sodipodi:namedview
     id="namedview1"
     pagecolor="#ffffff"
     bordercolor="#000000"
     borderopacity="0.25"
     inkscape:showpageshadow="2"
     inkscape:pageopacity="0.0"
     inkscape:pagecheckerboard="0"
     inkscape:deskcolor="#d1d1d1"
     inkscape:document-units="mm"
     inkscape:zoom="0.73516369"
     inkscape:cx="246.20367"
     inkscape:cy="364.54466"
     inkscape:window-width="1147"
     inkscape:window-height="1000"
     inkscape:window-x="2547"
     inkscape:window-y="668"
     inkscape:window-maximized="0"
     inkscape:current-layer="layer1" /><defs
     id="defs1"><linearGradient
       id="linearGradient22"
       inkscape:collect="always"><stop
         style="stop-color:#e99356;stop-opacity:1;"
         offset="0"
         id="stop23" /><stop
         style="stop-color:#e85e1c;stop-opacity:1;"
         offset="1"
         id="stop24" /></linearGradient><linearGradient
       id="linearGradient1"
       inkscape:collect="always"><stop
         style="stop-color:#e85e1c;stop-opacity:1;"
         offset="0"
         id="stop1" /><stop
         style="stop-color:#e99356;stop-opacity:1;"
         offset="1"
         id="stop2" /></linearGradient><clipPath
       id="presentation_clip_path"
       clipPathUnits="userSpaceOnUse">
   <rect
   x="0"
   y="0"
   width="2487"
   height="2619"
   id="rect1" />
  </clipPath><linearGradient
       inkscape:collect="always"
       xlink:href="#linearGradient1"
       id="linearGradient2"
       x1="190.60562"
       y1="389.4556"
       x2="1080.4788"
       y2="389.4556"
       gradientUnits="userSpaceOnUse" /><radialGradient
       inkscape:collect="always"
       xlink:href="#linearGradient22"
       id="radialGradient24"
       cx="441.892"
       cy="52.758793"
       fx="441.892"
       fy="52.758793"
       r="444.93658"
       gradientTransform="matrix(-0.01224961,-0.99992497,1.4385252,-0.01762269,468.48325,924.61559)"
       gradientUnits="userSpaceOnUse" /></defs><g
     inkscape:label="Layer 1"
     inkscape:groupmode="layer"
     id="layer1"
     style="display:inline"
     transform="translate(-190.60563,-224.56595)"><path
       style="display:inline;mix-blend-mode:normal;fill:url(#radialGradient24);fill-opacity:1;stroke:url(#linearGradient2);stroke-width:0.811522"
       d="m 652.2432,553.46176 c -18.20358,-7.79181 -20.10268,-28.14155 -35.86357,-36.10302 -24.37337,26.43547 -23.19268,-34.61311 -54.28399,-20.10907 -44.49972,-0.0145 -89.48082,-2.82738 -132.82841,-12.62927 0.38801,13.28965 -9.7112,61.43416 -24.23015,26.88794 C 390.20554,487.0253 371.02406,465.80405 340.38475,465.47521 293.2655,452.53898 240.83293,451.0951 199.80852,421.849 c -25.07331,-16.81918 12.00429,-12.98823 6.3194,-17.62407 -34.81725,-14.27354 14.01455,-43.49768 32.33233,-48.84601 86.74381,-31.5805 178.24878,-52.71681 271.02386,-51.59842 39.33539,5.67823 58.44404,-35.42515 84.53045,-57.08277 16.31227,-11.04906 39.6948,-37.90809 48.41544,-8.17378 21.85346,20.89694 46.07601,51.29472 63.92355,70.59498 -10.7208,9.08542 -51.13482,10.66059 -16.07893,15.09544 44.84019,7.69755 89.79197,13.72295 134.7664,20.41198 20.00019,7.1728 50.91769,-17.60144 70.766,-6.24251 18.74451,12.13514 -35.19905,21.11402 2.06557,19.72418 30.32369,3.66018 60.73794,-7.15529 83.54334,-24.9209 26.82147,-17.20113 58.93657,-30.37551 89.80217,-32.87565 2.5316,22.5934 2.3593,48.62549 -1.8994,69.83671 -13.9558,19.37226 -1.9247,37.96352 -4.0389,56.60605 14.3824,17.04607 28.4306,61.62063 -10.2881,45.5615 -29.2772,0.18599 -56.03474,-14.58237 -83.13978,-20.96076 -31.39527,-15.04508 -68.49162,-18.723 -101.63959,-7.07068 -5.98471,13.39915 31.31083,-2.35834 19.67352,21.21843 1.56411,25.66407 -6.41164,57.64349 -24.34972,74.09817 -18.58815,-17.16395 -40.02831,-32.20272 -64.86333,-41.03406 -24.66744,-17.48881 -56.13427,-26.16468 -86.11864,-18.78537 -16.52042,7.41125 -59.83714,-4.9104 -57.67362,20.52386 1.79647,11.38714 18.65712,58.88878 -4.63734,53.15644 z"
       id="path1" /><g
       style="display:inline;fill-rule:evenodd;stroke-width:28.222;stroke-linejoin:round"
       id="g1"
       transform="matrix(0.04054059,0,0,0.04054059,510.84763,343.7625)"><g
         class="SlideGroup"
         id="g16">
  <g
   id="g15">
   <g
   id="container-id1">
    <g
   id="id1"
   class="Slide"
   clip-path="url(#presentation_clip_path)">
     <g
   class="Page"
   id="g14">
      <g
   class="Graphic"
   id="g13">
       <g
   id="id3">
        <rect
   class="BoundingBox"
   stroke="none"
   fill="none"
   x="0"
   y="0"
   width="2487"
   height="2619"
   id="rect12" />
        <path
   fill="#f7efe7"
   stroke="none"
   d="m -0.41341486,2619.1544 0.78315,-223.9454 410.00000486,-384 384,385 -241.18926,227.4655 z M 669.42434,2160.6849 1574.3697,1270.209 h 56 55 l 131,139 179,212 48,73 -15,96 -60,145 -89,49 h -44 l -113,-122 -114,-123 -335,334 -364.2327,332.8837 z m -232.65819,-229.6395 -13.39641,-206.8364 68,-81 69,-81 103,-31 145,-77 42,-47 -160,-349 -161,-348.99995 v -93 -93 l 55,-89 55,-89 h 58 58 l 388.99996,390 390,389.99995 v 40 40 l -917.25828,905.0947 z m 1656.29155,-397.7834 -144.8196,-154.0079 -106.3905,-43.2553 -398.758,-391.18809 101.2801,-99.60166 -322,-323 -322.99996,-324 v -41 l 49,-86.000002 48,-44 h 186.99996 187 l 287,134.000002 287,133 258,256 258,256 v 40 l -119,159.99995 -119,121 119,117 119,116 v 44 l -50,88 -139,56 z"
   id="path13"
   sodipodi:nodetypes="cccccccccccccccccccccccccccccccccccccccccccccccccccccccccccccccccccc"
   style="fill:#201814;fill-opacity:1" />
       </g>
      </g>
     </g>
    </g>
   </g>
  </g>
 </g></g><path
       class="st0"
       d="m 458.7156,404.3504 c 5.04,5.72 8.09,13.23 8.09,21.45 0,17.94 -14.54,32.49 -32.49,32.49 -12.45,0 -23.27,-7.01 -28.72,-17.29 h -14.81 v 6.94 h -22.1 v -6.94 h -15.32 v -8.06 h 15.32 v -7.01 h 7.02 v -15.87 h -15.11 c -1.99,0 -3.8,-0.81 -5.11,-2.12 -1.32,-1.31 -2.13,-3.12 -2.13,-5.11 v -25.43 c 0,-1.77 0.64,-3.4 1.71,-4.66 -1.07,-1.26 -1.71,-2.89 -1.71,-4.67 v -25.42 c 0,-1.99 0.81,-3.8 2.12,-5.11 1.31,-1.32 3.12,-2.13 5.12,-2.13 h 91.06 c 1.99,0 3.8,0.81 5.11,2.12 1.31,1.31 2.12,3.12 2.12,5.11 v 25.43 c 0,1.77 -0.65,3.4 -1.71,4.66 1.07,1.26 1.71,2.89 1.71,4.66 v 25.43 c 0,0.52 -0.06,1.03 -0.17,1.53 z m -38.61,26.76 c -0.83,-0.8 -1.26,-1.86 -1.28,-2.92 -0.02,-1.07 0.36,-2.14 1.16,-2.97 0.8,-0.83 1.86,-1.26 2.92,-1.28 1.07,-0.02 2.14,0.36 2.97,1.16 l 5.38,5.11 12.48,-16.33 v 0 c 0.04,-0.05 0.09,-0.09 0.14,-0.13 4.06,-3.51 9.5,2.58 5.55,6.22 l -15.33,19.05 v 0 c -0.03,0.04 -0.07,0.07 -0.11,0.11 -0.8,0.7 -1.81,1.05 -2.82,1.03 -1.01,-0.02 -2.03,-0.4 -2.82,-1.16 z m -17.48,1.83 c -0.52,-2.3 -0.79,-4.69 -0.79,-7.14 0,-5.71 1.48,-11.08 4.06,-15.74 h -22.14 v 15.88 h 7.02 v 7.01 h 11.85 z m -22.89,-1.02 c 2.77,0 5.02,2.25 5.02,5.02 0,2.77 -2.25,5.02 -5.02,5.02 -2.77,0 -5.02,-2.25 -5.02,-5.02 0,-2.77 2.24,-5.02 5.02,-5.02 z m -12.21,-83.48 h 5.35 v 13.85 h -5.35 z m 73.52,37.43 c 2.34,0 4.24,1.9 4.24,4.24 0,2 -1.38,3.67 -3.24,4.12 1.68,0.41 3.31,0.95 4.88,1.61 2.45,1.03 4.75,2.34 6.86,3.91 v -22.35 c 0,-0.58 -0.24,-1.12 -0.63,-1.5 -0.3,-0.3 -0.69,-0.51 -1.12,-0.59 -0.13,0.01 -0.26,0.01 -0.38,0.01 h -91.06 c -0.13,0 -0.26,0 -0.38,-0.01 -0.43,0.08 -0.82,0.29 -1.12,0.59 -0.4,0.38 -0.64,0.91 -0.64,1.5 v 25.43 c 0,0.58 0.24,1.12 0.63,1.5 0.39,0.39 0.92,0.63 1.5,0.63 h 48.57 c 2.94,-3.48 6.58,-6.34 10.7,-8.35 4.35,-2.12 9.23,-3.31 14.39,-3.31 1.48,0 2.94,0.1 4.37,0.29 -1.1,-0.77 -1.81,-2.04 -1.81,-3.48 0,-2.34 1.9,-4.24 4.24,-4.24 z m -16.15,0 c 2.34,0 4.24,1.9 4.24,4.24 0,2.34 -1.9,4.24 -4.24,4.24 -2.34,0 -4.24,-1.9 -4.24,-4.24 0,-2.34 1.9,-4.24 4.24,-4.24 z m -27.79,-2.68 h 5.35 v 13.85 h -5.35 z m -14.79,0 h 5.35 v 13.85 h -5.35 z m -14.79,0 h 5.35 v 13.85 h -5.35 z m 73.52,-32.07 c 2.34,0 4.24,1.9 4.24,4.24 0,2.34 -1.9,4.24 -4.24,4.24 -2.34,0 -4.24,-1.9 -4.24,-4.24 0,-2.34 1.9,-4.24 4.24,-4.24 z m -16.15,0 c 2.34,0 4.24,1.9 4.24,4.24 0,2.34 -1.9,4.24 -4.24,4.24 -2.34,0 -4.24,-1.9 -4.24,-4.24 0,-2.34 1.9,-4.24 4.24,-4.24 z m -27.79,-2.68 h 5.35 v 13.85 h -5.35 z m -14.79,0 h 5.35 v 13.85 h -5.35 z m -22.11,21.73 c 0.13,-0.01 0.26,-0.01 0.38,-0.01 h 91.06 c 0.13,0 0.26,0 0.38,0.01 0.43,-0.08 0.82,-0.29 1.12,-0.59 0.39,-0.39 0.63,-0.92 0.63,-1.5 v -25.43 c 0,-0.58 -0.24,-1.12 -0.63,-1.51 -0.39,-0.39 -0.92,-0.63 -1.5,-0.63 h -91.05 c -0.58,0 -1.12,0.24 -1.51,0.63 -0.39,0.39 -0.63,0.92 -0.63,1.51 v 25.43 c 0,0.58 0.24,1.12 0.63,1.5 0.3,0.3 0.69,0.51 1.12,0.59 z m 91.11,34.09 c -1.93,-1.5 -4.06,-2.76 -6.34,-3.72 -3.29,-1.38 -6.92,-2.14 -10.72,-2.14 -2.37,0 -4.67,0.3 -6.87,0.86 -11.79,3.08 -20.49,13.8 -20.49,26.55 0,15.15 12.28,27.44 27.44,27.44 15.16,0 27.44,-12.28 27.44,-27.44 -0.02,-8.74 -4.1,-16.52 -10.46,-21.55 z"
       id="path1-8"
       style="fill:#201814;fill-opacity:1" /><path
       class="st0"
       d="m 655.19731,347.67688 h 114.49037 c 4.93567,0 8.96611,4.03044 8.96611,8.96611 v 80.41483 c 0,4.92489 -4.03044,8.96611 -8.96611,8.96611 H 655.19731 c -4.93567,0 -8.96611,-4.04122 -8.96611,-8.96611 v -80.41483 c 0,-4.93567 4.03044,-8.96611 8.96611,-8.96611 z m 88.41105,38.98966 3.90112,3.90112 c 1.02378,1.02378 1.02378,2.70492 0,3.7287 l -3.13598,3.13598 c 0.86212,1.61649 1.53027,3.36229 1.95056,5.19431 h 4.06277 c 1.45483,0 2.64026,1.18542 2.64026,2.64026 v 5.50683 c 0,1.45484 -1.18543,2.64027 -2.64026,2.64027 h -4.43995 c -0.53883,1.79968 -1.32552,3.49161 -2.29541,5.04343 l 2.87734,2.87735 c 1.02378,1.02378 1.02378,2.70492 0,3.7287 l -3.90112,3.90112 c -1.02377,1.02377 -2.70492,1.02377 -3.7287,0 l -3.13598,-3.13599 c -1.61649,0.86213 -3.36229,1.53028 -5.19431,1.95056 v 4.06277 c 0,1.45484 -1.18542,2.64027 -2.64026,2.64027 h -5.50683 c -1.45484,0 -2.64027,-1.18543 -2.64027,-2.64027 V 427.402 c -1.79968,-0.53882 -3.49161,-1.32551 -5.04343,-2.29541 l -2.87735,2.87735 c -1.02377,1.02377 -2.70492,1.02377 -3.7287,0 l -3.90112,-3.90112 c -1.02377,-1.02378 -1.02377,-2.70492 0,-3.7287 l 3.13599,-3.13598 c -0.86213,-1.61649 -1.53028,-3.36229 -1.95056,-5.19431 h -4.06277 c -1.45484,0 -2.64027,-1.18543 -2.64027,-2.64026 v -5.50684 c 0,-1.44406 1.18543,-2.64026 2.64027,-2.64026 h 4.43995 c 0.5496,-1.79969 1.32552,-3.49161 2.29541,-5.04344 l -2.87735,-2.87734 c -1.02377,-1.02378 -1.02377,-2.70492 0,-3.7287 l 3.90112,-3.90112 c 1.02378,-1.02377 2.70492,-1.02377 3.7287,0 l 3.13598,3.13598 c 1.61649,-0.86212 3.3623,-1.53027 5.19431,-1.95056 v -4.06277 c 0,-1.45483 1.18543,-2.64026 2.64027,-2.64026 h 5.50683 c 1.45483,0 2.64026,1.18543 2.64026,2.64026 v 4.42918 c 1.79969,0.53883 3.49161,1.32552 5.04344,2.29541 l 2.87734,-2.87735 c 1.02378,-1.013 2.69415,-1.013 3.7287,0.0108 z m -17.74903,9.81746 c 5.98101,0 10.83047,4.84946 10.83047,10.83046 0,5.981 -4.84946,10.83046 -10.83047,10.83046 -5.981,0 -10.83046,-4.84946 -10.83046,-10.83046 0,-5.981 4.84946,-10.83046 10.83046,-10.83046 z m -21.99499,-23.70847 v 2.64026 c 0,1.30397 -1.06688,2.38163 -2.38162,2.38163 h -3.99811 c -0.49573,1.61648 -1.19621,3.14676 -2.06911,4.54771 l 2.59716,2.59716 c 0.92678,0.92678 0.92678,2.4355 0,3.36229 l -3.51317,3.51316 c -0.92678,0.92679 -2.4355,0.92679 -3.36229,0 l -2.82346,-2.82346 c -1.45484,0.77591 -3.02822,1.3794 -4.67704,1.75658 v 3.66404 c 0,1.30396 -1.06688,2.38162 -2.38162,2.38162 h -4.968 c -1.30397,0 -2.38163,-1.06688 -2.38163,-2.38162 v -3.99811 c -1.61648,-0.49572 -3.14676,-1.1962 -4.54771,-2.0691 l -2.59716,2.59715 c -0.92678,0.92679 -2.43551,0.92679 -3.36229,0 l -3.51317,-3.51316 c -0.92678,-0.92679 -0.92678,-2.43551 0,-3.3623 l 2.82347,-2.82346 c -0.77592,-1.45484 -1.3794,-3.02822 -1.75658,-4.67703 h -3.66404 c -1.30397,0 -2.38162,-1.06689 -2.38162,-2.38163 v -1.39018 h -2.97434 v 65.15519 c 0,0.68971 0.26941,1.29319 0.72203,1.75659 0.45262,0.45261 1.06688,0.72203 1.75658,0.72203 h 116.43015 c 0.6897,0 1.29319,-0.26942 1.75658,-0.72203 0.4634,-0.4634 0.72203,-1.06688 0.72203,-1.75659 v -65.17674 h 0.0431 v 0 z m -34.22641,0 c 0.24786,5.17276 4.51538,9.30019 9.7528,9.30019 5.23742,0 9.50494,-4.12743 9.7528,-9.30019 z m 91.5147,-15.02255 c 2.44628,0 4.42917,1.98289 4.42917,4.42917 0,2.44629 -1.98289,4.42918 -4.42917,4.42918 -2.44629,0 -4.42918,-1.98289 -4.42918,-4.42918 0.0108,-2.44628 1.99367,-4.42917 4.42918,-4.42917 z m -30.002,0 c 2.44629,0 4.42918,1.98289 4.42918,4.42917 0,2.44629 -1.98289,4.42918 -4.42918,4.42918 -2.44628,0 -4.42917,-1.98289 -4.42917,-4.42918 0,-2.44628 1.98289,-4.42917 4.42917,-4.42917 z m 15.001,0 c 2.44628,0 4.42917,1.98289 4.42917,4.42917 0,2.44629 -1.98289,4.42918 -4.42917,4.42918 -2.44628,0 -4.42917,-1.98289 -4.42917,-4.42918 0,-2.44628 1.98289,-4.42917 4.42917,-4.42917 z"
       id="path1-5"
       style="fill:#201814;fill-opacity:1;stroke-width:1.07766" /></g><style
     type="text/css"
     id="style1">.st0{fill-rule:evenodd;clip-rule:evenodd;}</style><style
     type="text/css"
     id="style1-4"><![CDATA[
	.st0{fill-rule:evenodd;clip-rule:evenodd;}
]]></style></svg>
